<?xml version="1.0" encoding="UTF-8"?> <svg xmlns="http://www.w3.org/2000/svg" id="Layer_1" viewBox="0 0 128 128.37"><defs><style>.cls-1,.cls-2{fill:#fff;}.cls-3{fill:#5D87FF;}.cls-4{fill:none;stroke:#fff;}.cls-4,.cls-2{stroke-miterlimit:10;stroke-width:2px;}.cls-2{stroke:#d6d2d2;}.cls-5{opacity:.3;}</style></defs><rect class="cls-1" y=".37" width="128" height="128" rx="6" ry="6"></rect><rect class="cls-3" x="8.33" y="8.37" width="111.67" height="111.67" rx="6" ry="6"></rect><path class="cls-5" d="M120,63.56l-29.73-30.54-.86,1.42-.13,8.2,8.12,1.12-.69,41.68-44.59-.24-9.84,.04-9.42,.19,34.09,34.59c16.92,0,45.05,0,47.09,0,2.67,0,6-2.29,6-6s-.03-50.48-.03-50.48Z"></path><g><path class="cls-4" d="M89.21,43.29h7.07c.43,0,.77,.34,.77,.77v40.62c0,.43-.34,.77-.77,.77H34.19c-.43,0-.77-.34-.77-.77V44.06c0-.43,.34-.77,.77-.77h7.07"></path><line class="cls-4" x1="33.42" y1="79.29" x2="97.05" y2="79.29"></line></g><g><path class="cls-2" d="M65.23,37.98h0c-11.75-8.63-23.98-4.27-23.98-4.27v37.05s4.76-1.7,11.76-.7,12.22,4.97,12.22,4.97c8.84-7.04,23.98-4.27,23.98-4.27V33.71s-10.91-5.84-23.98,4.27Z"></path><line class="cls-2" x1="65.23" y1="38.1" x2="65.23" y2="74.69"></line></g></svg> 